<svg xmlns="http://www.w3.org/2000/svg" width="20.312" height="18.75" viewBox="0 0 20.312 18.75">
  <defs>
    <style>
      .cls-1 {
        fill: #000;
        fill-rule: evenodd;
      }
    </style>
  </defs>
  <path id="_" data-name="“" class="cls-1" d="M385.969,1783.04a5.958,5.958,0,0,0-2.383-1.14,3.827,3.827,0,0,1-1.191-.53,1.064,1.064,0,0,1-.473-0.92,5.987,5.987,0,0,1,.979-2.93,16.38,16.38,0,0,1,3.557-3.86l-2.023-2.41a26.564,26.564,0,0,0-3.345,3.39,15.134,15.134,0,0,0-1.942,3.06,11.156,11.156,0,0,0-.914,2.91,18.619,18.619,0,0,0-.228,2.95,13.225,13.225,0,0,0,.114,1.85,8.606,8.606,0,0,0,.294,1.36,4.555,4.555,0,0,0,.424.96,5.5,5.5,0,0,0,.506.69,4.539,4.539,0,0,0,2.072,1.23,8.808,8.808,0,0,0,2.431.36,1.967,1.967,0,0,0,1.175-.41,3.6,3.6,0,0,0,.963-1.15,6.922,6.922,0,0,0,.653-1.67,7.919,7.919,0,0,0,.244-2A2.269,2.269,0,0,0,385.969,1783.04Zm11.421,0a5.947,5.947,0,0,0-2.382-1.14,3.816,3.816,0,0,1-1.191-.53,1.062,1.062,0,0,1-.473-0.92,5.987,5.987,0,0,1,.979-2.93,16.358,16.358,0,0,1,3.557-3.86l-2.023-2.41a26.564,26.564,0,0,0-3.345,3.39,15.134,15.134,0,0,0-1.942,3.06,11.156,11.156,0,0,0-.914,2.91,18.619,18.619,0,0,0-.228,2.95,13.074,13.074,0,0,0,.114,1.85,8.606,8.606,0,0,0,.294,1.36,4.555,4.555,0,0,0,.424.96,5.406,5.406,0,0,0,.506.69,4.534,4.534,0,0,0,2.072,1.23,8.808,8.808,0,0,0,2.431.36,1.967,1.967,0,0,0,1.175-.41,3.616,3.616,0,0,0,.963-1.15,6.922,6.922,0,0,0,.652-1.67,7.919,7.919,0,0,0,.245-2A2.267,2.267,0,0,0,397.39,1783.04Z" transform="translate(-378 -1771.25)"/>
</svg>
